# xmcd CD database file
#
# Track frame offsets:
#	150
#	12315
#	25607
#	38805
#	53062
#	65737
#	79472
#	90977
#	102755
#	117015
#
# Disc length: 1754 seconds
#
# Revision: 1
# Processed by: cddbd v1.5.2PL0 Copyright (c) Steve Scherf et al.
# Submitted via: CDex 1.51
#
DISCID=7206d80a
DTITLE=Lightnin' Hopkins - Lightnin' Hopkins Sings The Blues
DYEAR=2002
DGENRE=Blues
TTITLE0=Contrary Mary
TTITLE1=Down To The River
TTITLE2=Bald Headed Woman
TTITLE3=Back Home Boogie
TTITLE4=New York Boogie
TTITLE5=Long Way From Texas
TTITLE6=My Heart To Weep
TTITLE7=Tap Dance Boogie
TTITLE8=Cemetary Blues
TTITLE9=Happy New Year
EXTD=YEAR: 2002
EXTT0=
EXTT1=
EXTT2=
EXTT3=
EXTT4=
EXTT5=
EXTT6=
EXTT7=
EXTT8=
EXTT9=
PLAYORDER=
